<?xml version="1.0" encoding="utf-8"?>
<!-- Generator: Adobe Illustrator 22.0.0, SVG Export Plug-In . SVG Version: 6.00 Build 0)  -->
<svg version="1.1" id="Warstwa_1" xmlns="http://www.w3.org/2000/svg" xmlns:xlink="http://www.w3.org/1999/xlink" x="0px" y="0px"
	 viewBox="0 0 566.9 566.9" style="enable-background:new 0 0 566.9 566.9;" xml:space="preserve">
<style type="text/css">
	.st0{fill:#ED1C24;}
</style>
<path class="st0" d="M185.3,323.7c-0.2,13-0.4,26-0.6,39.1c-1.9,0.4-3.6,0.2-5.3,0.2c-1.8,0-3.7,0.1-5.5,0c-1.7,0-3.5,0.3-5.2-0.2
	c0-0.9,0.4-1.6,0.7-2.3c2.6-6.8,5.1-13.6,7.4-20.5c0.9-2.8,1.6-5.7,2.2-8.6c0.3-1.3,0.3-2.7,0.2-4.1c-0.3-2.8-2.1-4.9-4.8-5.7
	c-3.2-0.9-6-0.4-8.4,2c-0.2,0.2-0.4,0.3-0.5,0.5c-0.1,0-0.1,0.1-0.2,0.1c-0.6-0.1-0.4-0.6-0.4-0.9c0-11.5,0-23,0-34.6
	c0-0.4-0.1-0.8,0.3-1.3c4.8,0,9.7,0.6,14.6,0.7c4.9,0.1,9.7,0.4,14.8,0.6c3.8,13.1,7.3,26.2,11.4,39.3c2.5-13.2,4.9-26.4,7.4-39.4
	c0.5-0.6,1.1-0.5,1.7-0.5c9.4,0,18.7,0,28.1,0c0.5,0,1-0.1,1.3,0.2c0.1,0.1,0.2,0.2,0.2,0.2c0,0.1,0.1,0.1,0.1,0.2
	c0,0.2,0.1,0.3,0.1,0.5c1.1,23.5,2.2,47,3.3,70.5c0,0.3,0,0.6-0.1,1.1c-0.7,0.9-1.4,1.8-2.2,2.8c-5.7,0.6-11.5,0.4-17.2,0.7
	c-0.8-1.4-0.5-2.8-0.6-4.1c-0.1-1.4,0-2.7,0-4.3c2.2-3.6,3.6-7.8,4.5-12.1c0.1-0.5,0.2-1.1,0.3-1.7c0.2-3-0.9-5.3-3.7-6.6
	c-0.7-0.3-1.3-0.6-2.1-0.9c-0.7-4.5-0.1-9.1-1.2-13.7c-0.9,4.4-1.9,8.7-2.8,13.1c-0.5,0.2-0.8,0.4-1.2,0.4c-2,0.3-3.3,1.6-4.2,3.2
	c-1.9,3.2-3.8,6.3-5,9.8c-0.5,1.4-0.9,2.7-1.2,4c0.5,3.8,2.7,6.2,5.9,7.7c0.4,0.7,0.1,1.3,0,1.9c-0.2,0.6-0.1,1.3-0.5,1.8
	c-0.5,0.4-1.1,0.1-1.6,0c-0.9-0.2-1.7-0.4-2.6-0.5c-1.6-0.2-3,0.1-4.3,1.1c-0.4,0.3-0.8,0.5-1.2,0.8c-3.5,0-6.9,0-10.5,0
	C192.8,350.6,189.4,337.1,185.3,323.7z"/>
<path d="M277.4,444.6c-0.8,3.6-1.6,7-2.3,10.4c-1.1,5-2.2,10-3.4,15c-0.6,2.7-1.6,5.4-2.8,7.9c-0.5,1.1-1.1,2.1-1.8,3.1
	c-0.8,1-1.6,1.8-2.9,1.9c-1.3-0.1-1.9-1-2.3-2.1c-0.4-1.2-0.6-2.5-0.7-3.8c-0.2-4,0.2-8,0.7-11.9c2.8-21,7.9-41.4,13.9-61.7
	c0.5-1.6,1-3.2,1.5-4.8c0.1-0.4,0.3-0.7,0-1.3c-2.1,0.5-4.1,1.5-6.1,2.3c-2,0.8-4,1.7-5.9,2.6c-2,0.9-4,2-6,2.9
	c-0.2,2,0.4,3.6,0.7,5.3c0.9,4.8,1.8,9.6,1.9,14.5c0.2,6.8-1.2,13.2-6.2,18.3c-4.8,5-14.7,6.9-20.9,3.3c-6-3.5-8.9-8.6-8.4-15.5
	c0.5-6.6,3.4-12.3,7.7-17.2c2.4-2.7,5.1-5.1,8-7.3c1-0.7,1.9-1.5,3-2.3c-0.3-2.6-0.7-5.2-1-7.8c-0.8-7.5-0.8-15,0.6-22.5
	c1-5.2,3.6-9.3,7.5-12.8c2.7-1.1,5-0.3,7.2,1.3c1.7,1.3,2.1,2.9,1.4,4.9c-0.3,0.8-0.7,1.6-1.1,2.4c-1.6,2.8-2.4,5.9-2.7,9.1
	c-0.5,5.7,0,11.3,0.6,17c0,0.4,0.1,0.8,0.2,1.1c0.8,0.2,1.3-0.2,1.9-0.4c4.6-2,9.4-3.6,14.2-5.3c1.9-0.7,3.7-0.7,5.7-0.5
	c1.8-4.3,2.5-8.9,5.5-12.4c0.9-0.1,1.7-0.2,2.5-0.2c3.4-0.1,4.6,0.8,5.5,4.2c0.7-0.7,1.3-1.3,1.8-2c3.9-4.6,8.9-7.8,14.2-10.5
	c1.7-0.8,3.4-1.3,5.3-1.3c4.7,0,8.2,2.9,9.2,7.5c0.7,3.4,0.3,6.7-0.3,10c-0.9,5.6-2.8,10.8-4.9,16c-2.9,7.2-6.5,14.1-10.9,20.5
	c-5,7.3-11,13.7-18.5,18.5c-2.2,1.4-4.5,2.4-7,3.1C280.5,444.5,279.1,444.4,277.4,444.6z M280.3,433.3c0.2-0.1,0.5-0.1,0.7-0.2
	c0.5-0.3,0.9-0.6,1.4-1c6.2-4.8,11-10.8,15.4-17.3c4.6-7,7.7-14.7,10.2-22.6c0.8-2.6,1.4-5.3,2-7.9c0.1-0.5,0.4-1.1-0.4-1.6
	c-0.7,0.1-1.4,0.5-2.1,1c-3.3,2-6.3,4.3-9,7.1c-3.2,3.3-6.3,6.8-9.3,10.3c-0.7,0.9-1.2,1.8-1.6,2.9c-2.5,9-5,18-7.1,27.1
	C280.4,431.8,280.1,432.5,280.3,433.3z M246.6,413.1c-2.9,2-5.1,4.2-7.1,6.5c-2.2,2.7-3.6,5.8-4.5,9.1c-0.6,2.1-0.3,4.1,0.3,6.1
	c0.3,1.2,1.1,2.1,2.1,2.8c4,2.6,9.1,1,11-3.4c0.6-1.4,0.8-2.9,0.8-4.4C249,424.3,247.7,418.9,246.6,413.1z"/>
<path d="M241.8,390.9c0.5,0.9,0.4,1.7-0.1,2.5c-0.3,0.6-0.6,1.1-0.9,1.7c-7.2,12.9-16.1,24.6-26.1,35.5c-2.1,2.2-4.4,4.2-7.2,5.5
	c-4.4,2.1-10.9,1-13-5.1c-0.9-2.7-1.4-5.4-1.3-8.2c0.1-1.7,0.2-3.3,0.3-5c-0.7-0.2-0.9,0.4-1.1,0.7c-3.7,4.9-7.7,9.4-11.8,13.9
	c-2,2.2-4.3,4-6.9,5.5c-1.6,0.9-3.3,1.3-5.1,1.3c-3.6,0-6.1-1.8-7.3-5.1c-0.9-2.5-1-5-0.7-7.6c1-8.6,3.1-17,5.7-25.2
	c0.8-2.5,1.6-5,2.4-7.5c0.1-0.4,0.4-0.9,0.1-1.4c-0.5,0-0.7,0.4-0.9,0.7c-6.7,9.4-13.2,18.9-19.6,28.5c-1.8,2.7-3.3,5.5-4.9,8.2
	c-0.7,1.2-1.5,2.3-2.3,3.4c-1.3,1.8-2.9,2.7-5.2,2.1c-2.3-0.6-3.8-2.4-4-4.8c-0.2-1.8,0-3.7,0.2-5.5c0.9-7.4,2.7-14.6,4.8-21.7
	c3.7-12.9,8.1-25.6,13-38.1c3.9-9.9,7.8-19.8,12.3-29.4c1.1-2.5,2.5-4.8,3.9-7.2c0.5-0.9,1.2-1.7,1.9-2.5c1.3-1.5,2.9-1.9,4.8-1.5
	c1.9,0.4,3.1,1.6,3.3,3.6c0.1,0.9,0,1.7-0.2,2.6c-0.9,5.1-2.6,9.9-4.3,14.7c-5,13.7-10.1,27.4-15.1,41.2c-2.3,6.3-4.3,12.7-6.4,19.1
	c-0.1,0.2-0.2,0.5,0.1,0.8c1.5-2,3.1-4.1,4.6-6.1c3.8-5.2,7.7-10.4,11.5-15.7c2.6-3.6,5-7.2,7.5-10.8c1.6-2.4,3.9-3.3,6.6-2.8
	c2.2,0.4,3.7,1.7,4.4,3.9c0.6,1.9,0.5,3.8,0.3,5.7c-0.7,4.8-2.1,9.4-3.4,14c-2.6,8.7-5.4,17.2-7.6,26c-0.3,1.2-0.6,2.5-0.8,3.7
	c-0.1,0.3-0.1,0.6,0.3,0.9c0.7,0,1.1-0.5,1.6-0.9c5.2-4.4,10-9.2,14.3-14.5c1.8-2.2,3.7-4.2,5.6-6.3c1-1.1,1.6-2.3,1.9-3.8
	c2.2-9,4.8-17.9,8.5-26.4c0.9-2,1.9-3.9,3.1-5.7c0.6-0.9,1.3-1.7,2.2-2.1c3.9-0.3,6.1,0.8,7.7,3.8c0.2,2.2-0.5,4.3-1.1,6.5
	c-2.1,7.8-4.4,15.5-6.5,23.3c-1.9,7.3-3.6,14.6-4.6,22c-0.2,1.3-0.6,2.7,0.1,3.9c0.7,0.5,1.2,0.2,1.6-0.1c1.4-0.8,2.6-1.9,3.8-3
	c6.5-6,12-12.8,17.2-20c2.3-3.2,4.7-6.5,7.1-9.7c0.3-0.4,0.6-0.8,0.9-1.1C238.4,389.5,239.8,389.4,241.8,390.9z"/>
<path class="st0" d="M521.9,344.4c-0.9-0.3-1.7-0.3-2.4-0.2c-0.5,0.6-0.3,1.4-0.3,2.1c0,4.8,0.1,9.6,0.1,14.4c0,0.7,0.1,1.4-0.2,2.1
	c-1.7,0.4-16.9,0.5-19.6,0.1c-0.5-0.7-0.3-1.5-0.3-2.3c-0.2-20.1-0.4-40.3-0.6-60.4c0-2.2-0.1-4.3-0.1-6.5c0-0.7-0.1-1.4,0.2-2.2
	c1-0.8,2.3-1.3,3.6-1.6c10.4-2.9,20.9-3.7,31.5-1.4c3.7,0.8,7.2,2.2,10.3,4.3c7.1,4.6,10.8,11.2,11.5,19.5
	c0.5,5.8-0.4,11.3-3.3,16.5c-2,3.5-4.6,6.5-7.9,8.9c-0.5,0.4-1,0.7-1.5,1.1c-0.1,0.1-0.2,0.3-0.4,0.6c2.5,5.3,6.8,8.2,12.7,8.5
	c0,6.7,0,13.1,0,19.5c-4.9,1.1-14-1.7-20.5-6.3C528.9,357,524.4,351.5,521.9,344.4z M519,324.6c5.3,1.7,11.6-0.1,14.9-4.1
	c1.3-1.5,1.9-3.3,1.9-5.3c0-4.3-3.2-8.4-7.4-9.5c-3.3-0.9-6.4-0.1-9.4,1.2C519,312.9,519,318.7,519,324.6z"/>
<path class="st0" d="M138.5,360.8c-0.3-1.1-0.5-2.1-0.7-3.1c-0.6-2.7-2.1-4.4-5-4.8c-3.1,0.3-4.6,2.1-5.2,5c-0.4,2-0.7,4.1-0.7,6.3
	c-1.7,0.4-3.3,0.4-5,0.4c-9.5-0.4-17.7-3.9-24.8-10.2c-6.1-5.4-10.5-11.9-12.5-19.8c-2.9-11.4-0.6-21.9,6.5-31.3
	c6.6-8.7,15.4-14.1,26.3-15.7c6.6-1,13.1-0.4,19.3,2.2c11.9,5,20,13.5,23.8,25.9c1.3,4.2,1.5,8.5,1.3,12.8c0,0.7-0.2,1.4-0.5,2.1
	c-3.1,5.9-5.6,12-8.1,18.2c-0.6,1.5-1.5,2.8-2.7,3.9c-3,3-6.3,5.4-10,7.4C139.9,360.5,139.4,360.9,138.5,360.8z M141.8,326
	c0.1-6.9-3.5-13-9.6-16.2c-4.7-2.5-9.7-3.2-14.9-1.9c-6.5,1.6-10.9,5.5-13,11.9c-1.1,3.5-1.2,7.1-0.3,10.6c2.2,9,9.8,14.7,19.3,14.2
	C133.5,344.1,141.8,335.9,141.8,326z"/>
<path class="st0" d="M441.2,287.8c17.7-0.6,35.1-1.1,52.6-1.7c0.8,2.3,0.5,4.5,0.7,6.7c0.2,2.1,0.3,4.3,0.5,6.5
	c0.1,2.2,0.6,4.4,0.3,6.9c-2.8,0.2-5.6,0.1-8.4,0.1c-2.8,0-5.6,0-8.4,0.1c-2.7,0-5.4,0-8.2,0.1c-2.8,0-5.6,0.1-8.3,0.1
	c-0.4,2.2-0.3,5.8,0.3,7.9c9.1-0.2,18.3-0.4,27.4-0.6c0.7,2.1,1.5,16,1.2,19.7c-0.7,0.6-1.7,0.4-2.5,0.4c-4.2,0.1-8.5,0.1-12.7,0.2
	c-3.8,0.1-7.5,0.2-11.3,0.3c-0.3,0-0.6,0.1-1.1,0.2c-0.2,3,0.4,6,0.3,9.1c2.3,0.6,4.4-0.1,6.5,0c2.2,0,4.3-0.1,6.5-0.2
	c2.2-0.1,4.5-0.2,6.7-0.3c2.2-0.1,4.3-0.1,6.5-0.2c2.2-0.1,4.3-0.4,6.4-0.2c0.1,0.1,0.1,0.2,0.2,0.2c0.1,0.1,0.1,0.1,0.1,0.2
	c0,0.2,0.1,0.3,0.1,0.5c0,5.8,0,11.7,0,17.5c0,0.4-0.1,0.8-0.1,1.1c-0.6,0.6-1.2,0.5-1.9,0.5c-10.2,0.2-20.5,0.4-30.7,0.6
	c-5.8,0.1-11.7,0.3-17.5,0.4c-0.8,0-1.6,0-2.3,0c-0.6-0.5-0.5-1.1-0.6-1.6c-0.1-1-0.1-1.9-0.2-2.9c-0.4-12.3-0.8-24.6-1.2-36.9
	c-0.4-10.9-0.8-21.7-1.2-32.6C441.2,289.3,441.2,288.7,441.2,287.8z"/>
<path class="st0" d="M369.4,286.2c1.7,4.5,2.8,8.9,3.6,13.3c1.7,9.6,2.3,19.2,1.4,28.9c-0.6,6.5-2,12.8-4.8,18.7
	c-2.3,4.8-5.3,8.9-9.5,12.2c-4.4,3.4-9.3,5.2-14.8,5.5c-3.3,0.2-6.6,0.1-9.8-0.7c-7-1.7-12.4-5.7-16.5-11.6c-3.6-5.1-5.6-10.9-7-17
	c-1.4-6.6-1.7-13.3-1.5-20c0.2-8.7,1.3-17.4,3.4-25.9c0.1-0.4,0.2-0.8,0.3-1.1c0-0.1,0.2-0.3,0.4-0.6c3.5,0.6,7,1.6,10.6,2.4
	c3.5,0.8,7,1.7,10.6,2.6c-0.3,2.1-0.7,4-0.9,6c-0.5,3.7-0.9,7.5-1.3,11.2c-0.3,3-0.7,6-0.8,9.1c-0.3,6.1,0.1,12.1,1.9,18
	c0.3,1.1,0.8,2.1,1.3,3.1c1.4,2.7,3.6,4.6,6.8,4.6c3.2,0,5.3-1.8,6.8-4.6c0.8-1.4,1.3-2.9,1.7-4.5c1.5-6.4,1.9-13,1.2-19.5
	c-0.7-7.6-2.1-15.2-4-22.6c-0.1-0.5-0.3-0.9,0.1-1.6C355.4,290.2,362.3,288.2,369.4,286.2z"/>
<path class="st0" d="M83.6,312.7c-1.9,0.9-13.7,4.6-17.1,5.4c-0.4-0.2-0.5-0.6-0.7-0.9c-2.6-5.5-9.3-10.8-18.5-9.7
	c-3.3,0.4-6.4,1.5-9.1,3.5c-3.2,2.4-5.1,5.7-5.9,9.6c-0.8,3.8-0.7,7.6,0.4,11.4c2.9,10.4,14.2,15.7,24.1,11.2c4-1.9,7.2-4.7,9.2-8.8
	c0.1-0.2,0.3-0.4,0.5-0.8c2.7,0.6,5.4,1.8,8.1,2.6c2.6,0.9,5.3,1.8,8,2.8c-0.3,2.9-1.3,5.4-2.6,7.8c-2.4,4.4-5.6,7.9-9.7,10.8
	c-6.8,4.9-14.3,7.4-22.7,7.1c-8.3-0.2-15.6-3.3-21.8-8.7C9.1,341.7,7,316.3,21.4,300.2c7.5-8.4,17-12.8,28.4-12.9
	c5.3,0,10.4,0.9,15.2,3.1C74.7,294.8,80.7,302.3,83.6,312.7z"/>
<path d="M402.2,385.6c-1.2-0.2-2,0.2-2.8,0.4c-3.4,0.8-6.8,1.1-10.2,0.4c-4.1-0.8-7.3-2.8-9.2-6.6c-1.1-2.3-1.1-4.3,0-6.7
	c1.8-1.2,3.7-1.3,5.6-0.1c3.8,2.3,7.8,2.4,12,1.6c3.4-0.7,6.6-1.8,9.8-3.2c1.4-0.7,2.8-1.2,4.3-1.3c4.3-0.2,7.6,3.7,6.5,7.9
	c-0.6,2.2-1.7,4.3-2.6,6.4c-4.1,9.3-7.8,18.8-10.1,28.7c-0.3,1.4-0.9,2.9-0.3,4.3c0.6,0.4,1,0.2,1.5,0c2.7-1.3,5.4-2.8,7.7-4.8
	c3.8-3.2,7.4-6.6,10.7-10.3c2.9-3.4,5.8-6.8,8.4-10.4c3.4-4.8,7.5-9,11.9-12.8c2.3-2,4.9-3.5,7.7-4.9c2.5-1.2,5.2-1.6,7.9-1.6
	c3.9,0.1,6.7,3.1,6.6,7c0,1.5-0.3,2.8-1,4.2c-0.7,1.6-1.7,3.1-2.7,4.5c-1.9,2.7-3.8,5.3-5.7,8c-3.4,4.8-7.3,9.1-11.8,12.8
	c-3,2.5-6.2,4.4-9.9,5.9c-1.2,2.7-1.7,5.6-1.9,8.5c0,0.5,0.1,1.1,0.2,1.7c0.4,1.8,1.5,2.6,3.3,2.3c1.4-0.2,2.8-0.7,4.1-1.2
	c6.5-2.5,12.1-6.3,17.2-11c6.3-5.9,11.7-12.4,16.5-19.5c0.7-1,1.2-2.1,1.8-3.1c1.3-2,3.6-2.8,5.8-1.9c0.5,0.6,0.4,1.2,0.2,1.8
	c-0.2,0.5-0.4,1.1-0.6,1.5c-4.8,8.6-9.9,17-16.7,24.2c-5.7,6-11.6,11.9-18.7,16.4c-3.3,2.1-6.9,3.8-10.8,4.2c-2.9,0.3-5.8,0-8.5-1.1
	c-2.6-1-4.5-3-5.8-5.5c-1.4-2.7-2.2-5.5-2.2-8.5c0-1,0-2.1,0-3.1c-0.7-0.4-0.9,0.2-1.2,0.4c-2.2,2.2-4.6,4.2-7.3,5.8
	c-3.2,2-6.7,2.9-10.5,2.6c-4.4-0.4-7.4-3-8.4-7.3c-0.7-3.1-0.2-6.2,0.3-9.3c1.2-7.3,3.6-14.3,6.2-21.1
	C400.4,389.9,401.2,387.9,402.2,385.6z M441.5,404.8c0.1,0.1,0.2,0.2,0.4,0.4c0.3-0.2,0.6-0.3,0.8-0.5c4.4-3.4,8.3-7.3,11.5-11.8
	c1.3-1.8,2.4-3.8,3.1-5.9c0.1-0.4,0.5-0.8,0-1.5C450.8,391,445.9,397.7,441.5,404.8z"/>
<path class="st0" d="M271.7,343.9c-0.2,6.7,0.3,13.3,0.3,19.9c-2.7,0.3-5.3,0.1-7.9,0.2c-2.4-5.2-6.7-6.8-11.9-6.3
	c-0.5-2-2.3-58.4-2-63.1c0.3-0.6,1-0.8,1.5-1c5.8-2.8,11.8-5,18.2-5.7c11.1-1.3,21.1,1.2,29.7,8.7c4.4,3.8,7.5,8.6,8.5,14.4
	c1.7,9.1-0.7,17.1-7.1,23.8c-5.6,5.9-12.6,8.9-20.6,9.5C277.6,344.4,274.8,344.2,271.7,343.9z M271.2,325.2c0.3,0.2,0.4,0.3,0.5,0.4
	c5.3,2.1,12.4-0.2,15.5-5c0.8-1.3,1.3-2.7,1.4-4.3c0.2-5.5-3.7-10.4-9.2-11.5c-3-0.6-5.8-0.3-8.6,1.4
	C270.9,312.6,271.1,318.9,271.2,325.2z"/>
<path class="st0" d="M397.5,307.4c-3.7-0.2-7.2,0.2-10.6,0.2c-3.3,0-6.7,0-10.3,0c-0.5-6.5-1-13-1.4-19.5c2.2-0.4,59.6-1.9,62.8-1.6
	c0.7,6.4,1.1,12.9,1.6,19.5c-1.9,0.6-3.8,0.3-5.6,0.4c-1.8,0.1-3.7,0.2-5.5,0.2c-1.8,0-3.7,0.1-5.5,0.1c-1.8,0-3.7,0.1-5.4,0.1
	c-0.7,0.9-0.5,1.7-0.5,2.5c0,11.8,0.1,23.5,0.2,35.3c0,5.5,0.1,11,0.1,16.6c0,0.8,0.2,1.6-0.3,2.6c-6.3,0.4-12.8,0.7-19.2,0.9
	c-0.7-0.9-0.4-1.8-0.4-2.6c-0.1-15.1-0.1-30.2-0.2-45.4C397.5,313.6,397.5,310.6,397.5,307.4z"/>
<path d="M89.3,410.9c-0.9,1.8-1.8,3.7-2.6,5.6c-2,4.6-4.5,8.8-7.5,12.8c-1.6,2.1-3.3,4.1-5.6,5.5c-2.6,1.6-5.3,1.6-8,0.1
	c-1.5-0.8-2.5-2.2-3.2-3.7c-0.9-2-1.3-4.1-1.3-6.3c-0.1-3.5,0.2-7,0.6-10.5c1-10.3,3.4-20.3,6.6-30.2c0.6-1.9,1.5-3.7,2.2-5.6
	c1.4-3.7,6.6-4.8,9.6-3.3c1.4,0.7,2.1,1.9,2.2,3.4c0,0.8-0.1,1.6-0.3,2.4c-1.4,5.6-2.8,11.2-4.1,16.8c-1.7,7.6-2.9,15.4-4.1,23.1
	c0,0.3,0,0.6,0.2,0.9c0.6,0.2,0.9-0.3,1.2-0.6c5.1-6,9.8-12.2,13.5-19.2c1.7-3.1,2.9-6.2,3.3-9.6c0.3-2.4,1.1-4.8,1.7-7.2
	c0.2-0.8,0.5-1.5,0.9-2.2c0.7-1.1,1.6-1.7,2.9-1.8c1.1-0.1,2.2,0,3.3,0.3c1.7,0.5,3.3,1.3,4.8,2.2c0.5,1.1,0.5,2.2,0.4,3.3
	c-0.3,3.3-0.6,6.7-0.9,10c-0.8,8.4-1.3,16.7-1,25.1c0.1,1.7,0.1,3.4,0.2,5c0.1,1,0.2,2.1,1.3,2.7c1.3,0,2.2-0.9,3.1-1.6
	c4-3.2,7.1-7.1,9.3-11.8c2.9-6.2,5.7-12.5,7.2-19.3c1.7-7.6,3.6-15.1,4.4-22.8c0.4-3.6,0.8-7.2,0.6-10.8c-0.1-1.8,0.2-3.5,0.6-5.2
	c0.2-0.7,0.5-1.4,1-1.8c0.5-0.4,1-0.5,1.7-0.2c1,0.6,1.3,1.7,1.5,2.8c0.8,3.6,0.9,7.3,0.8,11c-0.2,4.7-0.5,9.4-0.9,14.1
	c-0.6,6.9-2,13.7-4,20.4c-2,6.3-4.2,12.4-7.4,18.2c-1.9,3.5-4.2,6.8-6.8,9.9c-1.9,2.3-4.2,4.2-6.9,5.5c-1.8,0.9-3.8,1.4-5.8,1.3
	c-5.3-0.1-9-2.6-11.1-7.3c-1.6-3.5-2.2-7.2-2.6-10.9C89.9,417.8,89.7,414.5,89.3,410.9z"/>
<path d="M336.7,415c-1.2,2.7-1.7,5.6-1.9,8.6c0,0.6,0.1,1.3,0.3,1.9c0.4,1.5,1.4,2.2,3,2.1c1.5-0.1,2.9-0.7,4.4-1.2
	c6.5-2.5,12.1-6.3,17.2-11.1c6.2-5.8,11.6-12.3,16.4-19.4c0.7-1,1.2-2.1,1.8-3.1c0.9-1.6,2.4-2.2,4.1-2.5c0.7-0.1,1.3,0.1,1.8,0.5
	c0.4,0.6,0.3,1.2,0.2,1.8c-0.2,0.5-0.4,1.1-0.7,1.5c-4.8,8.5-9.8,16.9-16.5,24c-5.7,6-11.6,11.9-18.7,16.4
	c-3.3,2.1-6.8,3.8-10.8,4.3c-2.9,0.4-5.8,0-8.5-1c-2.6-1-4.4-2.8-5.8-5.2c-1.5-2.6-2.2-5.5-2.4-8.5c-0.3-5.9,1.2-11.4,3.6-16.7
	c3.8-8.4,8.9-16.1,15.3-22.8c2-2.1,4-4.1,6.3-5.9c2.4-2,5-3.5,7.7-4.8c2.4-1.1,5.1-1.5,7.7-1.4c3.8,0.1,6.6,3,6.6,6.8
	c0,1.5-0.3,3-1,4.4c-0.7,1.5-1.6,3-2.6,4.3c-1.8,2.5-3.7,5.1-5.4,7.6c-2.8,4.2-6.2,7.9-9.9,11.4C345.4,410.5,341.3,413.2,336.7,415z
	 M357.5,385.7c-4.6,3-15,16.1-15.5,19.5c0.3-0.2,0.6-0.3,0.8-0.5c4.4-3.4,8.3-7.3,11.5-11.8c1.3-1.9,2.4-3.9,3.2-6.1
	C357.6,386.4,357.8,386.1,357.5,385.7z"/>
<path d="M501.5,385.6c-0.9-0.3-1.7,0.2-2.5,0.4c-3.4,0.8-6.8,1.1-10.2,0.4c-4-0.8-7.1-2.7-9.1-6.4c-1.1-2-1.5-4.5-0.1-6.9
	c1.8-1.2,3.7-1.3,5.5-0.1c3.8,2.3,7.8,2.4,12,1.6c3.4-0.7,6.6-1.8,9.8-3.2c1.4-0.6,2.8-1.1,4.3-1.4c4.2-0.6,7.8,4.3,6.5,7.9
	c-0.6,1.7-1.2,3.3-1.9,4.9c-3.2,7-5.9,14.1-8.4,21.4c-1.1,3.3-2,6.6-2.7,9.9c-0.2,1.1-0.5,2.2,0,3.2c0.7,0.4,1.2,0.1,1.7-0.2
	c2.9-1.4,5.6-3,8.1-5.1c4.2-3.6,8.1-7.5,11.7-11.7c2.7-3.2,5.3-6.4,7.9-9.7c0.6-0.8,1.3-1.6,2.1-2.3c1-0.9,2.1-1.4,3.6-0.9
	c0.9,1.2,0.5,2.4,0,3.6c-0.7,1.6-1.6,3.1-2.4,4.7c-3.8,7-8.4,13.4-13.3,19.7c-3.5,4.4-7.3,8.5-12.2,11.5c-3.2,2-6.6,3.1-10.5,2.8
	c-5.1-0.3-8.5-3.6-8.9-8.6c-0.3-3.1,0.1-6.1,0.7-9.1c1.6-8.5,4.6-16.5,7.7-24.4C501.2,387,501.7,386.4,501.5,385.6z"/>
<path d="M272.2,208.5c0.9,0.3,1.9,0.2,2.8,0.2c18.6,0,37.3,0,55.9,0c0.9,0,1.8,0,2.6,0c6.1,0.3,10.9,5.2,10.8,11.2
	c-0.1,6.6-5,10.9-10.6,11.3c-0.6,0-1.3,0-1.9,0c-21.7,0-43.5,0-65.2,0c-1,0-2.1,0-3.1-0.2c-3.8-0.7-6.5-2.8-8.4-6.2
	c-3.4-6.3-6.9-12.6-10.3-18.9c-6.5-11.9-13-23.9-19.5-35.8c-1.1-2-1.8-4.1-1.7-6.4c0.1-4.9,3.3-9.2,7.9-10.6
	c4.7-1.5,9.9,0.4,12.7,4.5c0.5,0.7,0.9,1.5,1.3,2.3c8.4,15.4,16.8,30.9,25.3,46.3C271.2,207.1,271.5,207.9,272.2,208.5z M270,211.9
	c-0.8-0.9-1.3-1.9-1.8-2.9c-8.6-15.7-17.2-31.4-25.7-47.2c-0.4-0.7-0.7-1.4-1.2-2.1c-2.3-3.4-6.6-4.4-10.2-2.4
	c-3.4,1.9-4.9,6-3.3,9.7c0.3,0.7,0.7,1.4,1.1,2.1c9.6,17.7,19.3,35.4,28.9,53.1c0.4,0.7,0.8,1.4,1.2,2.1c1.4,2,3.3,3.2,5.8,3.3
	c0.7,0,1.4,0,2.2,0c21.5,0,43,0,64.6,0c0.7,0,1.4,0,2.2,0c3.8-0.3,6.8-3.2,7.1-6.9c0.3-3.7-2-7.1-5.7-8.2c-1.2-0.3-2.4-0.3-3.6-0.3
	c-19.4,0-38.9,0-58.3,0C272.2,212.2,271.2,212.4,270,211.9z"/>
<path d="M367.5,152c-1.3,0-2.2,0-3.2,0c-10.8,0-21.6,0-32.4,0c-1.8,0-3.7-0.1-5.5-0.6c-7-1.9-11.8-8.1-12-15.3c-0.1-3.7,0-7.4,0-11
	c0-7.9-0.1-15.8,0-23.8c0.1-5.8,2.7-10.5,7.5-13.7c2.7-1.8,5.6-2.6,8.9-2.6c5.7,0,11.4,0,17,0c13.5,0,27,0,40.6,0
	c1.9,0,3.8,0.2,5.7,0.7c6.7,2.1,11.4,8.2,11.4,15.3c0.1,8.9,0,17.8,0,26.6c0,2.6-0.1,5.3,0,7.9c0.2,7.8-5.9,15.8-15.5,16.4
	c-0.9,0.1-1.8-0.1-2.6,0.2c-0.5,0.8-0.3,1.6-0.3,2.4c0,3.8,0,7.7,0,11.5c0,0.6,0,1.1-0.1,1.7c-0.2,1.1-0.9,1.7-2,1.6
	c-1-0.2-1.6-1.1-2.3-1.7c-4.6-4.6-9.2-9.2-13.7-13.8C368.6,153.3,368.1,152.7,367.5,152z M385.1,148.4c1.4,0,3,0,4.6,0
	c5.6-0.2,10.5-4.1,11.9-9.5c0.4-1.5,0.5-3,0.5-4.5c0-10.6,0-21.3,0-31.9c0-1,0-1.9-0.2-2.9c-0.9-5.4-4-8.9-9.2-10.6
	c-1.6-0.5-3.3-0.5-5-0.5c-18.5,0-36.9,0-55.4,0c-1,0-2.1,0-3.1,0.2c-5.4,0.8-8.9,3.9-10.7,9.1c-0.5,1.5-0.5,3-0.5,4.5
	c0,10.8,0,21.6,0,32.4c0,0.5,0,1,0,1.4c0.1,3.5,1.5,6.5,4.1,8.9c2.5,2.3,5.5,3.4,9,3.4c11.7,0,23.3,0,35,0c0.8,0,1.6,0,2.1,0
	c1.1,0.4,1.5,1.1,2.1,1.7c3.8,3.8,7.7,7.7,11.5,11.5c0.4,0.4,0.7,1.1,1.7,0.9c0-0.8,0-1.5,0-2.3c0-3,0-6.1,0-9.1
	C383.6,150,383.7,149.1,385.1,148.4z"/>
<path d="M259.7,55.6c20.6-0.6,42.5,16.5,42.5,42.6c0,24.9-20.5,42.6-42.6,42.5c-23.5-0.1-42.6-19.1-42.5-42.7
	C217.2,72.6,238.5,55,259.7,55.6z M220.7,98.1c-0.3,20,15.9,38.9,38.8,39.1c22.6,0.1,39.2-18.3,39.2-39c0-20.7-16.6-39-38.9-39.1
	C237,59,220.5,77.7,220.7,98.1z"/>
<path d="M215.9,137.4c1.7-0.4,2.5,0.2,2.8,1.4c-0.1,1.2-0.9,1.8-1.5,2.5c-3.1,3.6-6.4,7.1-9.4,10.9c-19.9,24.3-33.1,51.9-39.5,82.7
	c-2.5,11.9-3.8,24-3.9,36.2c0,0.6,0,1.1,0,1.7c0,1.2-0.5,2-1.8,2.2c-1.3-0.1-1.8-0.9-1.8-2.1c0-1.6,0-3.2,0-4.8
	c0.7-26,6.4-50.8,17-74.5c8.2-18.1,18.9-34.6,32.1-49.5C212.1,141.8,214,139.6,215.9,137.4z"/>
<path d="M264,250.7c-1.2-1.9-1.2-1.9,0.1-3.3c0.8-0.3,1.7-0.2,2.6-0.2c45.8,0,91.6,0,137.5,0c1,0,2.1-0.3,3,0.6
	c0.5,0.9,0.5,1.7-0.2,2.5c-0.6,0.4-1.1,0.4-1.7,0.4C358.2,250.7,311.1,250.7,264,250.7z"/>
<path d="M320.3,238.3c-0.3,1.6,0.1,3.3-0.3,4.8c-1,1.1-2,1.1-3,0.2c-0.5-2-0.5-6,0-8.1c0.5-0.6,1.1-0.8,1.9-0.8c0.6,0,1.1,0,1.7,0
	c21.6,0,43.1,0,64.7,0c1.1,0,2.3-0.3,3.5,0.8c0.5,2.6,0.6,5.5-0.1,8.2c-2.3,0.8-3.1,0.3-3.2-1.8c0-0.6,0-1.1,0-1.7
	c0-0.5,0.1-1.1-0.2-1.6c-0.1-0.1-0.1-0.1-0.2-0.2c-0.1,0-0.1-0.1-0.2-0.1c-20.7,0-41.4-0.1-62.1-0.1c-0.6,0-1.3,0-1.9,0.1
	C320.8,238.1,320.6,238.2,320.3,238.3z"/>
<path d="M221.7,337.5c2.8-0.6,5.3,0,7.5,1.8c0.5,1,0.6,1.7,0.5,2.5c-0.6,4.2-1.8,8.1-4.1,11.7c-2.5,4-8.3,3.7-10.5-0.3
	c-0.6-1-0.7-2.1-0.3-3.2c0.8-1.9,1.4-3.9,2.4-5.7c0.9-1.6,1.8-3.2,2.7-4.8C220.4,338.8,220.8,338.1,221.7,337.5z"/>
<path d="M402.5,177.9c1.3-0.8,2.2-0.6,2.9,0.4c0.5,1.2-0.1,2.1-0.4,3.1c-2.5,6.8-5,13.6-7.5,20.5c-3.2,8.6-6.4,17.2-9.5,25.9
	c-0.2,0.6-0.4,1.2-0.7,1.8c-0.5,0.8-1.3,1.1-2.1,0.8c-0.8-0.3-1.2-1-1.1-1.9c0.1-0.5,0.3-1.1,0.5-1.6c5.8-15.7,11.6-31.5,17.4-47.2
	C402,178.9,402.3,178.4,402.5,177.9z"/>
<path d="M247.1,220c0.1,0.5,0.2,0.8,0.2,1.1c-0.8,17.3-0.2,34.7-0.5,52.1c0,0.3-0.2,0.6-0.2,0.9c-1.6,1.1-1.6,1.1-3.3-0.3
	c0-12.4,0-24.9,0-37.5c0-5.4,0-10.7,0.6-16C245.4,219,245.4,219,247.1,220z"/>
<path d="M276.9,253.7c1.1-0.6,2-0.5,2.8,0.8c0,6.4,0,12.9,0,19.3c-0.8,1.2-1.7,1.5-2.9,0.6c-0.7-0.7-0.6-1.6-0.6-2.5
	c0-5.2,0-10.3,0-15.5C276.2,255.5,276.1,254.6,276.9,253.7z"/>
<path d="M255.5,167.5c-0.3-0.9,0-1.7,0.2-2.4c1.5-4.8,2.9-9.6,4.4-14.4c0.1-0.5,0.3-0.9,0.5-1.3c0.4-0.8,1.3-1.1,2-0.9
	c0.8,0.3,1.3,1,1.2,1.8c0,0.4-0.2,0.8-0.3,1.2c-1.5,5-3,10.1-4.6,15.1c-0.2,0.5-0.3,1.1-1,1.6C257.1,168.8,256.2,168.6,255.5,167.5z
	"/>
<path d="M366.6,101.8c0.3,0.8,0.1,1.6-0.2,2.3c-3.2,10-6.3,20-9.5,29.9c-0.2,0.5-0.5,1-0.6,1.4c-0.9,0.7-1.7,0.7-2.5,0
	c-0.7-0.6-0.6-1.4-0.4-2.2c1.2-3.7,2.4-7.5,3.6-11.2c2-6.2,3.9-12.3,5.8-18.5c0.1-0.5,0.3-0.9,0.5-1.4
	C364.1,100.6,365.1,100.5,366.6,101.8z"/>
<path d="M329.5,118.4c0.1-0.7,0.5-1.2,0.9-1.6c3.1-3,6.1-6.1,9.2-9.1c0.2-0.2,0.4-0.3,0.6-0.4c1.3-0.4,2.1,0.2,2.4,1.4
	c0,1.1-0.7,1.7-1.3,2.3c-1.9,1.9-3.7,3.7-5.6,5.6c-0.6,0.6-1.1,1.1-1.6,1.6c-0.1,0.8,0.4,1.1,0.8,1.5c2,2,4.1,4.1,6.1,6.1
	c0.6,0.6,1.3,1.2,1.6,2.1c0.1,0.8-0.3,1.5-1.2,1.8c-0.9,0.3-1.6,0-2.2-0.6c-3-3-6.1-6.1-9.1-9.2C329.7,119.5,329.5,119,329.5,118.4z
	"/>
<path d="M386.1,118.2c-2.1-2.1-4.3-4.3-6.5-6.5c-0.5-0.5-0.9-0.9-1.3-1.4c-1.3-1.6-0.7-2.8,1.4-3.2c1.8,1.2,9.8,9.2,10.9,10.9
	c0.2,0.9-0.3,1.5-0.9,2.1c-2.9,2.9-5.9,5.9-8.8,8.8c-0.2,0.2-0.5,0.4-0.7,0.6c-0.7,0.4-1.4,0.3-2-0.2c-0.6-0.5-0.8-1.5-0.4-2.2
	c0.3-0.5,0.8-1,1.2-1.4c2.1-2.1,4.2-4.2,6.2-6.3C385.7,119.2,386,118.9,386.1,118.2z"/>
</svg>
